<svg width="505" height="505" viewBox="0 0 505 505" fill="none" xmlns="http://www.w3.org/2000/svg">
<mask id="mask0_62_13" style="mask-type:alpha" maskUnits="userSpaceOnUse" x="0" y="0" width="505" height="505">
<circle cx="252.5" cy="252.5" r="252.5" fill="#D9D9D9"/>
</mask>
<g mask="url(#mask0_62_13)">
<rect x="-4" y="-3" width="512" height="512" fill="url(#paint0_linear_62_13)"/>
<g clip-path="url(#clip0_62_13)">
<path d="M135 71.3438C135 67.5852 137.443 63.4534 143.174 59.2189C148.847 55.0278 157.247 51.1273 167.897 47.7996C189.161 41.1553 218.72 37 251.5 37C284.28 37 313.839 41.1553 335.103 47.7996C345.753 51.1273 354.153 55.0278 359.826 59.2189C365.557 63.4534 368 67.5852 368 71.3438V101.219C368 104.977 365.557 109.109 359.826 113.344C354.153 117.535 345.753 121.435 335.103 124.763C313.839 131.407 284.28 135.562 251.5 135.562C218.72 135.562 189.161 131.407 167.897 124.763C157.247 121.435 148.847 117.535 143.174 113.344C137.443 109.109 135 104.977 135 101.219V71.3438Z" fill="#552E05" stroke="white" stroke-width="6"/>
<path d="M135 168.438V136.595C136.358 137.991 137.908 139.319 139.609 140.576C146.031 145.32 155.132 149.466 166.108 152.896C188.095 159.767 218.286 163.969 251.5 163.969C284.714 163.969 314.905 159.767 336.892 152.896C347.868 149.466 356.969 145.32 363.391 140.576C365.092 139.319 366.642 137.991 368 136.595V168.438C368 172.196 365.557 176.328 359.826 180.562C354.153 184.753 345.753 188.654 335.103 191.982C313.839 198.626 284.28 202.781 251.5 202.781C218.72 202.781 189.161 198.626 167.897 191.982C157.247 188.654 148.847 184.753 143.174 180.562C137.443 176.328 135 172.196 135 168.438Z" fill="#552E05" stroke="white" stroke-width="6"/>
<path d="M135 235.656V203.813C136.358 205.21 137.908 206.537 139.609 207.794C146.031 212.539 155.132 216.685 166.108 220.115C188.095 226.985 218.286 231.188 251.5 231.188C284.714 231.188 314.905 226.985 336.892 220.115C347.868 216.685 356.969 212.539 363.391 207.794C365.092 206.537 366.642 205.21 368 203.813V235.656C368 239.415 365.557 243.547 359.826 247.781C354.153 251.972 345.753 255.873 335.103 259.2C313.839 265.845 284.28 270 251.5 270C218.72 270 189.161 265.845 167.897 259.2C157.247 255.873 148.847 251.972 143.174 247.781C137.443 243.547 135 239.415 135 235.656Z" fill="#552E05" stroke="white" stroke-width="6"/>
</g>
<mask id="path-6-outside-1_62_13" maskUnits="userSpaceOnUse" x="138" y="288" width="271" height="174" fill="black">
<rect fill="white" x="138" y="288" width="271" height="174"/>
<path d="M144.6 456V294.304H201.888C213.627 294.304 224.208 295.957 233.632 299.264C243.221 302.405 250.827 307.779 256.448 315.384C262.235 322.989 265.128 333.323 265.128 346.384C265.128 358.949 262.235 369.283 256.448 377.384C250.661 385.485 242.973 391.52 233.384 395.488C223.795 399.291 213.296 401.192 201.888 401.192H181.056V456H144.6ZM181.056 372.176H199.656C209.741 372.176 217.181 369.944 221.976 365.48C226.936 361.016 229.416 354.651 229.416 346.384C229.416 337.787 226.853 331.835 221.728 328.528C216.768 325.056 209.411 323.32 199.656 323.32H181.056V372.176ZM279.663 456V294.304H324.303C340.01 294.304 353.65 297.115 365.223 302.736C376.962 308.357 386.055 317.12 392.503 329.024C398.951 340.763 402.175 355.891 402.175 374.408C402.175 392.925 398.951 408.219 392.503 420.288C386.22 432.357 377.375 441.368 365.967 447.32C354.559 453.107 341.415 456 326.535 456H279.663ZM316.367 426.488H322.319C330.916 426.488 338.356 424.835 344.639 421.528C350.922 418.221 355.799 412.765 359.271 405.16C362.908 397.555 364.727 387.304 364.727 374.408C364.727 361.512 362.908 351.427 359.271 344.152C355.799 336.712 350.922 331.504 344.639 328.528C338.356 325.387 330.916 323.816 322.319 323.816H316.367V426.488Z"/>
</mask>
<path d="M144.6 456V294.304H201.888C213.627 294.304 224.208 295.957 233.632 299.264C243.221 302.405 250.827 307.779 256.448 315.384C262.235 322.989 265.128 333.323 265.128 346.384C265.128 358.949 262.235 369.283 256.448 377.384C250.661 385.485 242.973 391.52 233.384 395.488C223.795 399.291 213.296 401.192 201.888 401.192H181.056V456H144.6ZM181.056 372.176H199.656C209.741 372.176 217.181 369.944 221.976 365.48C226.936 361.016 229.416 354.651 229.416 346.384C229.416 337.787 226.853 331.835 221.728 328.528C216.768 325.056 209.411 323.32 199.656 323.32H181.056V372.176ZM279.663 456V294.304H324.303C340.01 294.304 353.65 297.115 365.223 302.736C376.962 308.357 386.055 317.12 392.503 329.024C398.951 340.763 402.175 355.891 402.175 374.408C402.175 392.925 398.951 408.219 392.503 420.288C386.22 432.357 377.375 441.368 365.967 447.32C354.559 453.107 341.415 456 326.535 456H279.663ZM316.367 426.488H322.319C330.916 426.488 338.356 424.835 344.639 421.528C350.922 418.221 355.799 412.765 359.271 405.16C362.908 397.555 364.727 387.304 364.727 374.408C364.727 361.512 362.908 351.427 359.271 344.152C355.799 336.712 350.922 331.504 344.639 328.528C338.356 325.387 330.916 323.816 322.319 323.816H316.367V426.488Z" fill="#4E5B92"/>
<path d="M144.6 456H138.6V462H144.6V456ZM144.6 294.304V288.304H138.6V294.304H144.6ZM233.632 299.264L231.645 304.926L231.705 304.946L231.764 304.966L233.632 299.264ZM256.448 315.384L251.623 318.95L251.648 318.984L251.673 319.017L256.448 315.384ZM256.448 377.384L251.566 373.897L251.566 373.897L256.448 377.384ZM233.384 395.488L235.596 401.065L235.637 401.049L235.678 401.032L233.384 395.488ZM181.056 401.192V395.192H175.056V401.192H181.056ZM181.056 456V462H187.056V456H181.056ZM181.056 372.176H175.056V378.176H181.056V372.176ZM221.976 365.48L217.962 361.02L217.925 361.054L217.887 361.089L221.976 365.48ZM221.728 328.528L218.287 333.443L218.38 333.508L218.475 333.57L221.728 328.528ZM181.056 323.32V317.32H175.056V323.32H181.056ZM150.6 456V294.304H138.6V456H150.6ZM144.6 300.304H201.888V288.304H144.6V300.304ZM201.888 300.304C213.066 300.304 222.961 301.878 231.645 304.926L235.619 293.602C225.455 290.036 214.187 288.304 201.888 288.304V300.304ZM231.764 304.966C240.254 307.747 246.793 312.415 251.623 318.95L261.273 311.818C254.861 303.142 246.189 297.064 235.5 293.562L231.764 304.966ZM251.673 319.017C256.419 325.255 259.128 334.16 259.128 346.384H271.128C271.128 332.485 268.05 320.724 261.223 311.751L251.673 319.017ZM259.128 346.384C259.128 358.029 256.455 367.052 251.566 373.897L261.33 380.871C268.015 371.514 271.128 359.87 271.128 346.384H259.128ZM251.566 373.897C246.461 381.044 239.687 386.386 231.09 389.944L235.678 401.032C246.26 396.654 254.862 389.927 261.33 380.871L251.566 373.897ZM231.172 389.911C222.358 393.406 212.619 395.192 201.888 395.192V407.192C213.973 407.192 225.232 405.175 235.596 401.065L231.172 389.911ZM201.888 395.192H181.056V407.192H201.888V395.192ZM175.056 401.192V456H187.056V401.192H175.056ZM181.056 450H144.6V462H181.056V450ZM181.056 378.176H199.656V366.176H181.056V378.176ZM199.656 378.176C210.467 378.176 219.691 375.805 226.065 369.871L217.887 361.089C214.672 364.083 209.016 366.176 199.656 366.176V378.176ZM225.99 369.94C232.507 364.075 235.416 355.914 235.416 346.384H223.416C223.416 353.387 221.365 357.957 217.962 361.02L225.99 369.94ZM235.416 346.384C235.416 336.66 232.465 328.315 224.981 323.486L218.475 333.57C221.242 335.355 223.416 338.913 223.416 346.384H235.416ZM225.169 323.613C218.754 319.122 209.952 317.32 199.656 317.32V329.32C208.869 329.32 214.782 330.99 218.287 333.443L225.169 323.613ZM199.656 317.32H181.056V329.32H199.656V317.32ZM175.056 323.32V372.176H187.056V323.32H175.056ZM279.663 456H273.663V462H279.663V456ZM279.663 294.304V288.304H273.663V294.304H279.663ZM365.223 302.736L362.602 308.133L362.617 308.14L362.632 308.148L365.223 302.736ZM392.503 329.024L387.227 331.882L387.236 331.897L387.244 331.913L392.503 329.024ZM392.503 420.288L387.211 417.461L387.196 417.489L387.181 417.518L392.503 420.288ZM365.967 447.32L368.681 452.671L368.712 452.655L368.743 452.64L365.967 447.32ZM316.367 426.488H310.367V432.488H316.367V426.488ZM344.639 421.528L347.434 426.838L344.639 421.528ZM359.271 405.16L353.858 402.571L353.835 402.62L353.813 402.668L359.271 405.16ZM359.271 344.152L353.834 346.689L353.868 346.763L353.905 346.835L359.271 344.152ZM344.639 328.528L341.956 333.895L342.013 333.923L342.071 333.95L344.639 328.528ZM316.367 323.816V317.816H310.367V323.816H316.367ZM285.663 456V294.304H273.663V456H285.663ZM279.663 300.304H324.303V288.304H279.663V300.304ZM324.303 300.304C339.299 300.304 352.006 302.986 362.602 308.133L367.845 297.339C355.294 291.243 340.721 288.304 324.303 288.304V300.304ZM362.632 308.148C373.181 313.199 381.356 321.043 387.227 331.882L397.779 326.166C390.754 313.197 380.743 303.516 367.815 297.324L362.632 308.148ZM387.244 331.913C393.056 342.492 396.175 356.533 396.175 374.408H408.175C408.175 355.248 404.847 339.033 397.762 326.135L387.244 331.913ZM396.175 374.408C396.175 392.272 393.059 406.514 387.211 417.461L397.795 423.115C404.843 409.923 408.175 393.579 408.175 374.408H396.175ZM387.181 417.518C381.432 428.563 373.445 436.651 363.192 442L368.743 452.64C381.305 446.085 391.009 436.152 397.825 423.058L387.181 417.518ZM363.253 441.969C352.813 447.264 340.626 450 326.535 450V462C342.204 462 356.305 458.949 368.681 452.671L363.253 441.969ZM326.535 450H279.663V462H326.535V450ZM316.367 432.488H322.319V420.488H316.367V432.488ZM322.319 432.488C331.687 432.488 340.126 430.684 347.434 426.838L341.845 416.218C336.587 418.986 330.146 420.488 322.319 420.488V432.488ZM347.434 426.838C355.091 422.807 360.807 416.243 364.729 407.652L353.813 402.668C350.791 409.288 346.752 413.635 341.845 416.218L347.434 426.838ZM364.684 407.749C368.858 399.021 370.727 387.77 370.727 374.408H358.727C358.727 386.838 356.959 396.089 353.858 402.571L364.684 407.749ZM370.727 374.408C370.727 361.069 368.866 349.925 364.638 341.469L353.905 346.835C356.951 352.929 358.727 361.955 358.727 374.408H370.727ZM364.708 341.615C360.757 333.148 354.974 326.784 347.208 323.106L342.071 333.95C346.87 336.224 350.841 340.276 353.834 346.689L364.708 341.615ZM347.322 323.161C340.041 319.521 331.643 317.816 322.319 317.816V329.816C330.19 329.816 336.672 331.253 341.956 333.895L347.322 323.161ZM322.319 317.816H316.367V329.816H322.319V317.816ZM310.367 323.816V426.488H322.367V323.816H310.367Z" fill="white" mask="url(#path-6-outside-1_62_13)"/>
</g>
<defs>
<linearGradient id="paint0_linear_62_13" x1="252" y1="-3" x2="252" y2="509" gradientUnits="userSpaceOnUse">
<stop stop-color="#FFBF7B"/>
<stop offset="1" stop-color="#FF8300"/>
</linearGradient>
<clipPath id="clip0_62_13">
<rect width="239" height="239" fill="white" transform="translate(132 34)"/>
</clipPath>
</defs>
</svg>
